# xmcd
#
# Track frame offsets: 
#        150
#        13432
#        26847
#        38847
#        52565
#        65357
#        79255
#        99852
#        114100
#        124375
#        136000
#        146875
#        159452
#        173552
#        188875
#        217000
#        235115
#        249550
#        257050
#        272575
#        290117
#        302042
#        319590
#
# Disc length: 4438 seconds
#
# Revision: 0
# Processed by: cddbd v1.5.1PL0 Copyright (c) Steve Scherf et al.
# Submitted via: ExactAudioCopy v0.95a5
#
DISCID=44115417
DTITLE=Tony Bennett - Fifty Years: The Artistry Of Tony Bennett [CD
DTITLE=1)
DYEAR=2004
DGENRE=Big Band/Pop
TTITLE0=The Boulevard Of Broken Dreams
TTITLE1=Because Of You
TTITLE2=Cold, Cold Heart
TTITLE3=Blue Velvet
TTITLE4=Rags To Riches
TTITLE5=Stranger In Paradise
TTITLE6=While The Music Plays On
TTITLE7=May I Never Love Again
TTITLE8=Sing You Sinners
TTITLE9=Just In Time
TTITLE10=Lazy Afternoon
TTITLE11=Ca, C'est L'amour
TTITLE12=I Get A Kick Out Of You
TTITLE13=It Amazes Me
TTITLE14=Penthouse Serenade (When We're Alone)
TTITLE15=Lost In The Stars
TTITLE16=Lullaby Of Broadway
TTITLE17=Firefly
TTITLE18=A Sleepin' Bee
TTITLE19=The Man That Got Away
TTITLE20=Skylark
TTITLE21=September Song
TTITLE22=Till
EXTD=
EXTT0=
EXTT1=
EXTT2=
EXTT3=
EXTT4=
EXTT5=
EXTT6=
EXTT7=
EXTT8=
EXTT9=
EXTT10=
EXTT11=
EXTT12=
EXTT13=
EXTT14=
EXTT15=
EXTT16=
EXTT17=
EXTT18=
EXTT19=
EXTT20=
EXTT21=
EXTT22=
PLAYORDER=
